<svg xmlns="http://www.w3.org/2000/svg" xmlns:xlink="http://www.w3.org/1999/xlink" width="74" height="74" viewBox="0 0 74 74">
  <defs>
    <clipPath id="clip-path">
      <rect id="Rectangle_564" data-name="Rectangle 564" width="74" height="74" transform="translate(278 1231)" fill="#db5d7b" stroke="#db5d7b" stroke-width="1"/>
    </clipPath>
  </defs>
  <g id="Mask_Group_7" data-name="Mask Group 7" transform="translate(-278 -1231)" clip-path="url(#clip-path)">
    <g id="mission" transform="translate(272.574 1224.482)">
      <path id="Path_442" data-name="Path 442" d="M6.1,66.678h8.007" fill="none" stroke="#db5d7b" stroke-linecap="round" stroke-linejoin="round" stroke-width="1.347"/>
      <path id="Path_443" data-name="Path 443" d="M34.367,69.372H61.272M37.053,72.066h7.089m3.687,0h9.51M42.427,74.76h6.745" fill="none" stroke="#db5d7b" stroke-linecap="round" stroke-linejoin="round" stroke-width="1.347"/>
      <path id="Path_444" data-name="Path 444" d="M28.744,1364.118a.575.575,0,0,0-.568.587c0,.4-.171.582-.568.582a.578.578,0,1,0,0,1.156c.383,0,.568.108.568.558a.578.578,0,1,0,1.156,0c0-.41.191-.558.571-.558a.578.578,0,1,0,0-1.156c-.516,0-.571-.294-.571-.582a.579.579,0,0,0-.587-.587Z" transform="translate(0 -1331.345)" fill="#db5d7b" fill-rule="evenodd"/>
      <path id="Path_445" data-name="Path 445" d="M25.243,1374.711a.316.316,0,0,0-.311.323c0,.22-.094.319-.313.319a.317.317,0,1,0,0,.633c.21,0,.313.059.313.307a.317.317,0,1,0,.633,0c0-.225.108-.306.315-.306a.317.317,0,1,0,0-.634c-.283,0-.314-.162-.314-.321a.318.318,0,0,0-.323-.322Zm3.048-26.927a.417.417,0,0,0-.415.428c0,.292-.125.424-.415.424a.421.421,0,1,0,0,.842c.279,0,.415.077.415.407a.421.421,0,1,0,.842,0c0-.3.14-.407.416-.407a.421.421,0,1,0,0-.842c-.376,0-.416-.215-.416-.424a.422.422,0,0,0-.427-.427Z" transform="translate(0 -1331.345)" fill="#db5d7b" fill-rule="evenodd"/>
      <path id="Path_446" data-name="Path 446" d="M54.876,1346.964a.316.316,0,0,0-.313.323c0,.22-.094.319-.313.319a.317.317,0,1,0,0,.633c.21,0,.313.059.313.307a.317.317,0,1,0,.633,0c0-.225.106-.306.314-.306a.317.317,0,1,0,0-.635c-.283,0-.313-.162-.313-.321a.318.318,0,0,0-.323-.322Z" transform="translate(0 -1331.345)" fill="#db5d7b" fill-rule="evenodd"/>
      <path id="Path_447" data-name="Path 447" d="M67.453,1355.294a.418.418,0,0,0-.415.428c0,.291-.124.424-.414.424a.421.421,0,1,0,0,.842c.279,0,.414.077.414.406a.422.422,0,1,0,.843,0c0-.3.139-.406.415-.406a.421.421,0,1,0,0-.842c-.374,0-.415-.215-.415-.424a.422.422,0,0,0-.428-.428Z" transform="translate(0 -1331.345)" fill="#db5d7b" fill-rule="evenodd"/>
      <path id="Path_448" data-name="Path 448" d="M63.93,1366.036a.316.316,0,0,0-.311.323c0,.218-.094.319-.313.319a.317.317,0,1,0,0,.633c.21,0,.313.059.313.307a.317.317,0,1,0,.633,0c0-.225.108-.306.315-.306a.317.317,0,1,0,0-.634c-.283,0-.314-.162-.314-.321a.318.318,0,0,0-.323-.322Zm-.449,10.557a.575.575,0,0,0-.568.587c0,.4-.171.582-.568.582a.578.578,0,1,0,0,1.156c.383,0,.568.106.568.558a.578.578,0,1,0,1.156,0c0-.411.191-.558.571-.558a.578.578,0,1,0,0-1.156c-.516,0-.571-.295-.571-.582a.579.579,0,0,0-.587-.587Z" transform="translate(0 -1331.345)" fill="#db5d7b" fill-rule="evenodd"/>
      <path id="Path_449" data-name="Path 449" d="M31.338,1355.165a.418.418,0,0,0-.414.428c0,.291-.125.424-.415.424a.421.421,0,1,0,0,.842c.279,0,.415.077.415.405a.421.421,0,1,0,.842,0c0-.3.139-.405.416-.405a.421.421,0,1,0,0-.842c-.377,0-.418-.215-.418-.424a.422.422,0,0,0-.427-.428Zm10.337-12.218a.326.326,0,0,0-.321.331c0,.226-.1.329-.321.329a.325.325,0,1,0,0,.651c.216,0,.321.059.321.314a.325.325,0,1,0,.651,0c0-.232.108-.314.322-.314a.325.325,0,1,0,0-.651c-.291,0-.323-.167-.323-.329a.326.326,0,0,0-.329-.33Z" transform="translate(0 -1331.345)" fill="#db5d7b" fill-rule="evenodd"/>
      <path id="Path_450" data-name="Path 450" d="M36.764,44.034a14.421,14.421,0,0,0-4.5,10.555,14.716,14.716,0,0,0,1.016,5.358,13.224,13.224,0,0,1,24.908.012A14.729,14.729,0,0,0,59.2,54.589a14.415,14.415,0,0,0-4.619-10.663" fill="none" stroke="#db5d7b" stroke-linejoin="round" stroke-width="1.347"/>
      <path id="Path_451" data-name="Path 451" d="M38.673,49.306a17.744,17.744,0,0,1,2.465-.867m1.721-.4c.294-.054-.295.039,0,0m1.976-.186a17.5,17.5,0,0,1,7.9,1.452" fill="none" stroke="#db5d7b" stroke-linecap="round" stroke-linejoin="round" stroke-width="1.347"/>
      <path id="Path_452" data-name="Path 452" d="M36.3,38.5a26.874,26.874,0,0,0,3.975,13.868,13.8,13.8,0,0,1,10.966-.106A26.962,26.962,0,0,0,46.206,18.2a29.106,29.106,0,0,0-9.3,15.064m-.427,2.268c-.044.225-.085.45-.123.676" fill="none" stroke="#db5d7b" stroke-linecap="round" stroke-linejoin="round" stroke-width="1.347"/>
      <path id="Path_453" data-name="Path 453" d="M21.375,54.362a8.079,8.079,0,0,1,10.372,9.746h0c.872-2.019,2.888-3.524,5.042-3.082a5.576,5.576,0,0,0,1.374,2.656,4.227,4.227,0,0,1,5.1-6.649l.013,2.239V51.533a6.507,6.507,0,0,1,4.253,0V61.671l.013-4.785a4.5,4.5,0,0,1,5.28.7,4.227,4.227,0,0,1,0,5.978c.769-.706.9-1.645,1.42-2.581a5.19,5.19,0,0,1,5.534,2.873h0a4.5,4.5,0,0,1,.391-3.306m1.708-1.759a4.5,4.5,0,0,1,6.152,1.649,4.59,4.59,0,0,1-1.647,6.227h-49.4a8.879,8.879,0,0,1,.218-8.987m1.437-1.691c.168-.193.346-.379.533-.555" fill="none" stroke="#db5d7b" stroke-linecap="round" stroke-linejoin="round" stroke-width="1.347"/>
      <path id="Path_454" data-name="Path 454" d="M50.8,33.445a4.9,4.9,0,1,1-9.79,0h0a4.909,4.909,0,0,1,4.91-4.9,4.857,4.857,0,0,1,3.861,1.9" fill="none" stroke="#db5d7b" stroke-linecap="round" stroke-linejoin="round" stroke-width="1.347"/>
      <path id="Path_455" data-name="Path 455" d="M70.875,66.678h7.877" fill="none" stroke="#db5d7b" stroke-linecap="round" stroke-linejoin="round" stroke-width="1.347"/>
    </g>
  </g>
</svg>
