<svg xmlns="http://www.w3.org/2000/svg" xmlns:xlink="http://www.w3.org/1999/xlink" width="74" height="74" viewBox="0 0 74 74">
  <defs>
    <clipPath id="clip-path">
      <rect id="Rectangle_565" data-name="Rectangle 565" width="74" height="74" transform="translate(796 1231)" fill="#db5d7b" stroke="#707070" stroke-width="1"/>
    </clipPath>
  </defs>
  <g id="Mask_Group_8" data-name="Mask Group 8" transform="translate(-796 -1231)" clip-path="url(#clip-path)">
    <g id="vision" transform="translate(794.806 1229.806)">
      <path id="Path_456" data-name="Path 456" d="M30.913,23.632a24.017,24.017,0,0,0,2.745-.6,1.148,1.148,0,0,0-.358-2.268,20.788,20.788,0,0,0-2.626.6,1.133,1.133,0,0,0-.835,1.432,1.146,1.146,0,0,0,1.074.835Z" fill="#db5d7b"/>
      <path id="Path_457" data-name="Path 457" d="M74.835,37.239C74,36.642,55.142,20.29,38.194,20.29a1.194,1.194,0,1,0,0,2.387c13.845,0,29.719,12.055,33.9,15.516-4.177,3.461-20.052,15.516-33.9,15.516S8.474,41.655,4.3,38.194c3.1-2.506,12.294-9.548,22.439-13.248a1.208,1.208,0,1,0-.835-2.268C13.129,27.332,2.029,36.881,1.552,37.239a1.452,1.452,0,0,0,0,1.91c.835.6,19.694,16.948,36.642,16.948S74,39.745,74.835,39.148a1.452,1.452,0,0,0,0-1.91Z" fill="#db5d7b"/>
      <path id="Path_458" data-name="Path 458" d="M38.194,51.323a1.194,1.194,0,1,0,0-2.387A10.742,10.742,0,1,1,48.935,38.194a10.861,10.861,0,0,1-5.968,9.668,1.176,1.176,0,0,0,.955,2.148,13.134,13.134,0,1,0-5.729,1.313Zm0-42.968a1.128,1.128,0,0,0,1.194-1.194V2.387a1.194,1.194,0,0,0-2.387,0V7.161A1.128,1.128,0,0,0,38.194,8.355ZM15.635,14.8a1.053,1.053,0,0,0,1.552.477,1.078,1.078,0,0,0,.477-1.552L15.277,8.952a1.053,1.053,0,0,0-1.552-.477,1.053,1.053,0,0,0-.477,1.552L15.635,14.8Zm43.565.6a1.209,1.209,0,0,0,1.552-.477l2.387-4.774a1.257,1.257,0,0,0-.477-1.552,1.257,1.257,0,0,0-1.552.477l-2.387,4.774A1.1,1.1,0,0,0,59.2,15.4ZM38.194,68.032A1.128,1.128,0,0,0,37,69.226V74a1.194,1.194,0,0,0,2.387,0V69.226A1.128,1.128,0,0,0,38.194,68.032ZM17.187,60.99a1.257,1.257,0,0,0-1.552.477l-2.387,4.774a1.257,1.257,0,0,0,.477,1.552,1.209,1.209,0,0,0,1.552-.477l2.387-4.774A1.1,1.1,0,0,0,17.187,60.99Zm43.565.6a1.148,1.148,0,0,0-2.029,1.074l2.387,4.774a1.028,1.028,0,0,0,1.552.477,1.053,1.053,0,0,0,.477-1.552Z" fill="#db5d7b"/>
      <path id="Path_459" data-name="Path 459" d="M44.161,38.194a1.194,1.194,0,1,0,2.387,0,8.3,8.3,0,0,0-8.355-8.355,1.194,1.194,0,1,0,0,2.387A5.91,5.91,0,0,1,44.161,38.194Zm-11.7,1.91a1.208,1.208,0,0,0-2.268.835,8.605,8.605,0,0,0,7.877,5.49,1.194,1.194,0,1,0,0-2.387A5.984,5.984,0,0,1,32.465,40.1ZM17.784,33.061a1.174,1.174,0,0,0-1.671-.358c-3.7,2.268-7.161,4.535-7.161,4.535a1.063,1.063,0,0,0-.6.955,1.473,1.473,0,0,0,.477.955l3.581,2.387a1.246,1.246,0,0,0,1.671-.358,1.174,1.174,0,0,0-.358-1.671L11.7,38.194c1.313-.835,3.461-2.148,5.61-3.581a1.174,1.174,0,0,0,.477-1.552Z" fill="#db5d7b"/>
    </g>
  </g>
</svg>
